<?xml version="1.0" encoding="iso-8859-1"?>
<!-- Generator: Adobe Illustrator 18.1.1, SVG Export Plug-In . SVG Version: 6.00 Build 0)  -->
<svg version="1.1" id="Capa_1" xmlns="http://www.w3.org/2000/svg" xmlns:xlink="http://www.w3.org/1999/xlink" x="0px" y="0px"
	 viewBox="0 0 28.002 28.002" style="enable-background:new 0 0 28.002 28.002;" xml:space="preserve">
<g>
	<path style="fill:#010002;" d="M17.036,13.038c0.611-1.215,0.964-2.583,0.965-4.036c-0.002-4.973-4.029-9-9-9.002
		C4.029,0.002,0.001,4.029,0,9.002c0.001,4.971,4.028,8.998,9.001,9c1.453-0.001,2.82-0.354,4.035-0.965l10.965,10.965l4-4
		L17.036,13.038z M9.002,16.002c-3.868-0.009-6.994-3.133-7-7c0.006-3.868,3.132-6.994,7-7C12.869,2.008,15.993,5.134,16,9.003
		C15.992,12.87,12.868,15.994,9.002,16.002z"/>
</g>
<g>
</g>
<g>
</g>
<g>
</g>
<g>
</g>
<g>
</g>
<g>
</g>
<g>
</g>
<g>
</g>
<g>
</g>
<g>
</g>
<g>
</g>
<g>
</g>
<g>
</g>
<g>
</g>
<g>
</g>
</svg>
